<svg width="97" height="36" viewBox="0 0 97 36" fill="none" xmlns="http://www.w3.org/2000/svg">
<rect width="36" height="36" fill="#151516"/>
<path d="M19.416 10.1816V10.9043C20.7116 11.0996 21.7077 11.4902 22.4043 12.0762V14.3223C21.5905 13.4889 20.5944 12.9355 19.416 12.6621V16.6172C20.6009 16.9688 21.4993 17.4831 22.1113 18.1602C22.7298 18.8307 23.0391 19.6055 23.0391 20.4844C23.0391 21.3633 22.7363 22.1478 22.1309 22.8379C21.8314 23.1829 21.4798 23.4629 21.0762 23.6777C20.679 23.8926 20.1257 24.0586 19.416 24.1758V26.3438H17.7754V24.1758C16.6686 24.0716 15.4154 23.6061 14.0156 22.7793V20.3184C14.6406 20.8848 15.2428 21.334 15.8223 21.666C16.4082 21.998 17.0592 22.2357 17.7754 22.3789V18.082C16.6816 17.7044 15.9102 17.3529 15.4609 17.0273C15.0182 16.7018 14.6699 16.3112 14.416 15.8555C14.1621 15.3932 14.0352 14.9277 14.0352 14.459C14.0352 13.541 14.377 12.7598 15.0605 12.1152C15.7441 11.4642 16.6491 11.0605 17.7754 10.9043V10.1816H19.416ZM17.7754 16.0996V12.6621C17.248 12.7337 16.8151 12.9258 16.4766 13.2383C16.1445 13.5443 15.9785 13.9056 15.9785 14.3223C15.9785 14.6999 16.0924 15.0124 16.3203 15.2598C16.5482 15.5072 16.9518 15.7513 17.5312 15.9922C17.6289 16.0312 17.7103 16.0671 17.7754 16.0996ZM19.7188 18.9023L19.416 18.7363V22.3594C20.5358 22.099 21.0957 21.526 21.0957 20.6406C21.0957 20.2565 20.9948 19.9408 20.793 19.6934C20.5977 19.4395 20.2396 19.1758 19.7188 18.9023Z" fill="white"/>
<rect x="7" y="7" width="1" height="1" fill="white"/>
<rect x="8" y="29" width="1" height="1" fill="white"/>
<rect x="27" y="7" width="1" height="1" fill="white"/>
<rect x="28" y="29" width="1" height="1" fill="white"/>
<path d="M44.9659 13.017V11.4545H55.875V13.017H51.3011V26H49.5398V13.017H44.9659ZM57.2333 26V15.0909H58.8526V16.7386H58.9663C59.1651 16.1989 59.525 15.7609 60.0458 15.4247C60.5666 15.0885 61.1538 14.9205 61.8072 14.9205C61.9303 14.9205 62.0842 14.9228 62.2688 14.9276C62.4535 14.9323 62.5932 14.9394 62.6879 14.9489V16.6534C62.631 16.6392 62.5008 16.6179 62.2972 16.5895C62.0984 16.5563 61.8877 16.5398 61.6651 16.5398C61.1348 16.5398 60.6613 16.651 60.2447 16.8736C59.8327 17.0914 59.506 17.3944 59.2646 17.7827C59.0278 18.1662 58.9094 18.6042 58.9094 19.0966V26H57.2333ZM67.8849 26.2557C67.1937 26.2557 66.5663 26.1255 66.0028 25.8651C65.4394 25.5999 64.992 25.2188 64.6605 24.7216C64.3291 24.2197 64.1634 23.6136 64.1634 22.9034C64.1634 22.2784 64.2865 21.7718 64.5327 21.3835C64.7789 20.9905 65.108 20.6828 65.5199 20.4602C65.9318 20.2377 66.3864 20.072 66.8835 19.9631C67.3854 19.8494 67.8897 19.7595 68.3963 19.6932C69.0592 19.608 69.5966 19.544 70.0085 19.5014C70.4252 19.4541 70.7282 19.3759 70.9176 19.267C71.1117 19.1581 71.2088 18.9687 71.2088 18.6989V18.642C71.2088 17.9413 71.017 17.3968 70.6335 17.0085C70.2547 16.6203 69.6795 16.4261 68.9077 16.4261C68.1075 16.4261 67.4801 16.6013 67.0256 16.9517C66.571 17.3021 66.2514 17.6761 66.0668 18.0739L64.4759 17.5057C64.7599 16.8428 65.1387 16.3267 65.6122 15.9574C66.0904 15.5833 66.6113 15.3229 67.1747 15.1761C67.7429 15.0246 68.3016 14.9489 68.8509 14.9489C69.2012 14.9489 69.6037 14.9915 70.0582 15.0767C70.5175 15.1572 70.9602 15.3253 71.3864 15.581C71.8172 15.8366 72.1747 16.2225 72.4588 16.7386C72.7429 17.2547 72.8849 17.946 72.8849 18.8125V26H71.2088V24.5227H71.1236C71.0099 24.7595 70.8205 25.0128 70.5554 25.2827C70.2902 25.5526 69.9375 25.7822 69.4972 25.9716C69.0568 26.161 68.5194 26.2557 67.8849 26.2557ZM68.1406 24.75C68.8035 24.75 69.3622 24.6198 69.8168 24.3594C70.276 24.099 70.6217 23.7628 70.8537 23.3509C71.0904 22.9389 71.2088 22.5057 71.2088 22.0511V20.517C71.1378 20.6023 70.9815 20.6804 70.7401 20.7514C70.5033 20.8177 70.2287 20.8769 69.9162 20.929C69.6084 20.9763 69.3078 21.0189 69.0142 21.0568C68.7254 21.09 68.491 21.1184 68.3111 21.142C67.8755 21.1989 67.4683 21.2912 67.0895 21.419C66.7154 21.5421 66.4124 21.7292 66.1804 21.9801C65.9531 22.2263 65.8395 22.5625 65.8395 22.9886C65.8395 23.571 66.0549 24.0114 66.4858 24.3097C66.9214 24.6032 67.473 24.75 68.1406 24.75ZM80.3761 26.2273C79.3533 26.2273 78.4727 25.9858 77.734 25.5028C76.9954 25.0199 76.4272 24.3546 76.0295 23.5071C75.6317 22.6596 75.4329 21.6913 75.4329 20.6023C75.4329 19.4943 75.6365 18.5166 76.0437 17.669C76.4556 16.8168 77.0285 16.1515 77.7624 15.6733C78.5011 15.1903 79.3628 14.9489 80.3477 14.9489C81.1147 14.9489 81.806 15.0909 82.4215 15.375C83.0371 15.6591 83.5413 16.0568 83.9343 16.5682C84.3273 17.0795 84.5711 17.6761 84.6658 18.358H82.9897C82.8619 17.8608 82.5778 17.4205 82.1374 17.0369C81.7018 16.6487 81.1147 16.4545 80.3761 16.4545C79.7227 16.4545 79.1497 16.625 78.6573 16.9659C78.1696 17.3021 77.7885 17.7779 77.5138 18.3935C77.244 19.0043 77.109 19.7216 77.109 20.5455C77.109 21.3883 77.2416 22.1222 77.5067 22.7472C77.7766 23.3722 78.1554 23.8575 78.6431 24.2031C79.1355 24.5488 79.7132 24.7216 80.3761 24.7216C80.8117 24.7216 81.207 24.6458 81.5621 24.4943C81.9173 24.3428 82.2179 24.125 82.4641 23.8409C82.7103 23.5568 82.8855 23.2159 82.9897 22.8182H84.6658C84.5711 23.4621 84.3368 24.0421 83.9627 24.5582C83.5934 25.0696 83.1033 25.4768 82.4925 25.7798C81.8865 26.0781 81.181 26.2273 80.3761 26.2273ZM88.6786 22.0227L88.6502 19.9489H88.9911L93.7638 15.0909H95.8377L90.7525 20.233H90.6104L88.6786 22.0227ZM87.1161 26V11.4545H88.7923V26H87.1161ZM94.0479 26L89.7866 20.6023L90.9798 19.4375L96.1786 26H94.0479Z" fill="white"/>
</svg>
